<svg width="486" height="261" viewBox="0 0 486 261" fill="none" xmlns="http://www.w3.org/2000/svg">
<g clip-path="url(#clip0_1_8)">
<path d="M0 107.526V103.251C4.65546 102.951 7.81917 101.9 9.50114 100.097C11.1831 98.2953 12.0141 94.9414 12.0141 90.0356V18.9222C12.0141 14.0164 11.1731 10.6625 9.50114 8.86039C7.82918 7.05828 4.65546 6.00704 0 5.70669V1.42167H48.7271C59.1894 1.42167 67.4892 2.21259 73.6163 3.78444C79.7435 5.36629 85.29 7.94932 90.2458 11.5535C97.204 16.5594 102.51 22.7767 106.165 30.2154C109.819 37.6441 111.651 45.9439 111.651 55.1046C111.651 71.5239 106.785 84.3689 97.0438 93.6298C87.3024 102.891 73.7765 107.526 56.4562 107.526H0ZM46.034 8.02942L45.9539 81.846C45.9539 89.6051 46.8049 94.8012 48.5069 97.4243C50.2089 100.047 53.2124 101.369 57.5175 101.369C63.8749 101.369 68.6906 97.5644 71.9744 89.9555C75.2583 82.3466 76.8902 71.1835 76.8902 56.4662C76.8902 39.8968 74.6976 27.6324 70.3225 19.6731C65.9473 11.7137 59.2195 7.72906 50.1588 7.72906C49.6082 7.72906 49.0676 7.73907 48.5469 7.76911C48.0263 7.79915 47.1853 7.87924 46.034 8.02942Z" fill="white"/>
<path d="M184.647 95.0615C180.392 100.167 175.516 104.062 170.009 106.735C164.503 109.408 158.626 110.75 152.369 110.75C146.662 110.75 141.316 109.599 136.34 107.296C131.364 104.993 127.069 101.689 123.465 97.3842C120.511 93.8801 118.289 89.9855 116.787 85.7105C115.285 81.4355 114.534 76.8101 114.534 71.8543C114.534 66.8985 115.255 61.9927 116.707 57.5875C118.159 53.1824 120.361 49.0275 123.315 45.1229C126.518 40.7678 130.833 37.2337 136.27 34.5405C141.696 31.8373 147.223 30.4858 152.829 30.4858C162.591 30.4858 170.39 33.4693 176.217 39.4262C182.054 45.3832 184.967 53.3626 184.967 63.3743H141.496C141.796 72.2848 144.7 79.6935 150.206 85.6004C155.713 91.5073 162.34 94.4608 170.099 94.4608C173.053 94.4608 175.726 93.9201 178.129 92.8489C180.532 91.7776 182.704 90.1557 184.657 88.0032V95.0615H184.647ZM141.326 58.0381H148.234C155.042 58.0381 159.227 57.4474 160.769 56.276C162.32 55.0946 163.101 52.862 163.101 49.5581C163.101 45.1029 162.3 41.759 160.698 39.5364C159.097 37.3037 156.664 36.1924 153.41 36.1924C149.255 36.1924 146.201 37.9345 144.249 41.4086C142.297 44.8926 141.326 50.4291 141.326 58.0381Z" fill="white"/>
<path d="M191.415 104.443V79.8136H195.319C197.572 87.9732 201.026 94.2706 205.681 98.6958C210.337 103.121 215.793 105.344 222.05 105.344C225.404 105.344 228.007 104.573 229.86 103.021C231.712 101.469 232.633 99.2865 232.633 96.4932C232.633 90.9867 227.227 86.0309 216.414 81.6257L215.433 81.2453C205.922 77.3908 199.614 73.7465 196.51 70.3225C193.407 66.8985 191.855 62.4733 191.855 57.0669C191.855 49.0075 194.889 42.59 200.946 37.8043C207.003 33.0187 215.212 30.6359 225.575 30.6359C229.479 30.6359 233.484 30.9763 237.589 31.6471C241.693 32.3179 245.898 33.3091 250.203 34.6106V55.1146H246.449C243.045 48.2065 239.641 43.3008 236.237 40.3974C232.833 37.494 228.928 36.0423 224.523 36.0423C221.219 36.0423 218.546 36.8532 216.494 38.4851C214.442 40.107 213.42 42.1995 213.42 44.7525C213.42 49.0075 218.947 53.3626 230.01 57.8178C230.911 58.1682 231.592 58.4385 232.032 58.6388C242.094 62.7436 248.602 66.478 251.555 69.8319C254.508 73.1858 255.98 77.6411 255.98 83.1976C255.98 91.3572 252.837 97.9949 246.559 103.101C240.282 108.207 232.102 110.76 222.04 110.76C217.135 110.76 212.129 110.229 207.023 109.178C201.917 108.127 196.711 106.555 191.404 104.443H191.415Z" fill="white"/>
<path d="M269.056 60.4509C269.056 58.1482 268.805 56.4862 268.305 55.455C267.804 54.4238 266.633 53.1924 264.771 51.7407L256.591 45.1329C262.548 43.2307 268.975 41.0081 275.894 38.4551C282.802 35.9021 290.16 33.0488 297.969 29.8951V92.2983C297.969 96.1528 298.66 98.916 300.032 100.598C301.403 102.27 303.696 103.161 306.9 103.261V107.536H259.374V103.261H259.825C263.129 103.261 265.491 102.42 266.923 100.748C268.345 99.0762 269.066 96.2529 269.066 92.2983V60.4609L269.056 60.4509ZM267.033 15.0877C267.033 10.8828 268.495 7.31858 271.428 4.38514C274.352 1.46171 277.926 -0.0100139 282.131 -0.0100139C286.336 -0.0100139 289.97 1.4517 292.873 4.38514C295.777 7.31858 297.229 10.8828 297.229 15.0877C297.229 19.2926 295.767 22.8568 292.833 25.7902C289.91 28.7237 286.336 30.1854 282.131 30.1854C277.926 30.1854 274.362 28.7337 271.428 25.8303C268.505 22.9269 267.033 19.3427 267.033 15.0877Z" fill="white"/>
<path d="M324.4 77.0404C320.896 74.7877 318.233 71.9944 316.401 68.6705C314.569 65.3366 313.658 61.6723 313.658 57.6676C313.658 49.6082 317.092 43.0405 323.95 37.9545C330.808 32.8786 339.769 30.3356 350.831 30.3356C352.183 30.3356 353.575 30.4157 354.996 30.5659C356.418 30.716 357.91 30.9463 359.462 31.2366C361.114 26.9316 363.616 23.5576 366.97 21.1048C370.324 18.6519 374.129 17.4304 378.384 17.4304C381.487 17.4304 384.05 18.3315 386.083 20.1336C388.115 21.9357 389.126 24.2184 389.126 26.9716C389.126 29.3244 388.355 31.2867 386.804 32.8686C385.252 34.4404 383.32 35.2313 381.017 35.2313C379.015 35.2313 376.562 34.3903 373.658 32.7184C370.755 31.0464 368.722 30.2054 367.571 30.2054C366.82 30.2054 366.169 30.3656 365.619 30.696C365.068 31.0264 364.588 31.507 364.197 32.1577C370.955 34.4604 376.111 37.7543 379.665 42.0293C383.219 46.3043 384.992 51.3302 384.992 57.087C384.992 64.9462 381.588 71.3237 374.78 76.2394C367.972 81.1452 359.011 83.598 347.898 83.598C344.895 83.598 341.901 83.3277 338.928 82.7771C335.944 82.2264 332.961 81.4255 329.957 80.3743C327.554 80.7747 325.662 81.5957 324.29 82.8472C322.919 84.0986 322.228 85.5804 322.228 87.2824C322.228 89.2847 322.989 90.9066 324.521 92.1681C326.052 93.4296 328.065 94.0503 330.568 94.0503C332.92 94.0503 337.105 92.8689 343.112 90.5262L343.943 90.2258C348.849 88.3236 352.824 87.0221 355.877 86.3212C358.931 85.6204 361.884 85.27 364.738 85.27C372.247 85.27 378.344 87.5126 383.019 91.9879C387.695 96.4631 390.037 102.29 390.037 109.448C390.037 118.659 386.133 126.058 378.324 131.634C370.515 137.211 360.032 140.004 346.867 140.004C336.104 140.004 327.674 138.532 321.557 135.579C315.45 132.626 312.396 128.571 312.396 123.415C312.396 121.462 312.797 119.71 313.598 118.159C314.399 116.607 315.65 115.185 317.352 113.884C314.649 112.031 312.587 109.709 311.155 106.895C309.723 104.092 309.012 100.938 309.012 97.4343C309.012 92.5786 310.314 88.4337 312.917 85.0097C315.52 81.5857 319.355 78.9426 324.41 77.0904L324.4 77.0404ZM323.95 117.358C323.75 117.858 323.6 118.339 323.499 118.789C323.399 119.24 323.349 119.69 323.349 120.141C323.349 123.845 325.622 127.049 330.177 129.752C334.733 132.455 340.439 133.807 347.297 133.807C354.155 133.807 359.281 132.646 363.286 130.313C367.291 127.98 369.293 124.947 369.293 121.192C369.293 118.889 368.452 117.037 366.78 115.636C365.108 114.234 362.866 113.533 360.062 113.533C358.31 113.533 354.316 114.414 348.088 116.156C341.861 117.908 336.515 118.779 332.059 118.779C330.808 118.779 329.486 118.659 328.085 118.399C326.683 118.149 325.302 117.798 323.96 117.348L323.95 117.358ZM349.33 77.7212C353.184 77.7212 355.957 76.1193 357.669 72.9155C359.371 69.7118 360.222 64.4256 360.222 57.0769C360.222 49.7283 359.371 44.0717 357.669 40.7478C355.967 37.4139 353.194 35.7519 349.33 35.7519C345.465 35.7519 342.622 37.3538 340.92 40.5576C339.218 43.7613 338.367 49.2177 338.367 56.9268C338.367 64.6358 339.228 69.6517 340.96 72.8855C342.692 76.1193 345.475 77.7312 349.33 77.7312V77.7212Z" fill="white"/>
<path d="M430.505 92.2782C430.505 96.1327 431.196 98.896 432.567 100.578C433.939 102.25 436.232 103.141 439.435 103.241V107.516H391.9V103.241H392.35C395.654 103.241 398.017 102.4 399.449 100.728C400.87 99.0562 401.591 96.2329 401.591 92.2782V63.975C401.591 61.5722 401.291 59.7901 400.69 58.6388C400.089 57.4874 398.958 56.3661 397.316 55.2548L387.935 48.6471C394.142 46.3944 400.56 43.7213 407.198 40.6176C413.835 37.514 420.723 33.9398 427.882 29.875V42.64C430.885 38.6353 434.389 35.6318 438.394 33.6294C442.399 31.6271 446.904 30.6259 451.91 30.6259C460.12 30.6259 466.237 32.7184 470.272 36.8933C474.306 41.0682 476.319 47.4456 476.319 56.0057V92.2782C476.319 96.2329 477.029 99.0462 478.461 100.728C479.893 102.41 482.256 103.241 485.559 103.241H486.01V107.516H447.415V56.7566C447.415 51.3502 446.754 47.5958 445.422 45.4934C444.091 43.3909 441.858 42.3397 438.705 42.3397C435.751 42.3397 433.649 43.4309 432.397 45.6035C431.146 47.776 430.525 51.5004 430.525 56.7566V92.2782H430.505Z" fill="white"/>
<path d="M0 227.987V223.702C4.65546 223.402 7.81917 222.351 9.50114 220.549C11.1831 218.747 12.0141 215.393 12.0141 210.487V139.383C12.0141 134.478 11.1731 131.124 9.50114 129.322C7.82918 127.52 4.65546 126.468 0 126.168V121.893H48.7271C59.1894 121.893 67.4892 122.684 73.6163 124.256C79.7435 125.838 85.29 128.421 90.2458 132.025C97.204 137.031 102.51 143.248 106.165 150.687C109.819 158.115 111.651 166.415 111.651 175.576C111.651 191.995 106.785 204.84 97.0438 214.101C87.3024 223.362 73.7765 227.997 56.4562 227.997H0V227.987ZM46.034 128.491L45.9539 202.307C45.9539 210.066 46.8049 215.262 48.5069 217.886C50.2089 220.509 53.2124 221.83 57.5175 221.83C63.8749 221.83 68.6906 218.026 71.9744 210.417C75.2583 202.808 76.8902 191.645 76.8902 176.928C76.8902 160.358 74.6976 148.094 70.3225 140.134C65.9473 132.175 59.2195 128.19 50.1588 128.19C49.6082 128.19 49.0676 128.2 48.5469 128.23C48.0263 128.26 47.1853 128.341 46.034 128.491Z" fill="white"/>
<path d="M184.647 215.523C180.392 220.629 175.516 224.523 170.009 227.196C164.503 229.87 158.626 231.211 152.369 231.211C146.662 231.211 141.316 230.06 136.34 227.757C131.364 225.454 127.069 222.151 123.465 217.846C120.511 214.341 118.289 210.447 116.787 206.172C115.285 201.897 114.534 197.271 114.534 192.316C114.534 187.36 115.255 182.454 116.707 178.049C118.159 173.644 120.361 169.489 123.315 165.584C126.518 161.229 130.833 157.695 136.27 155.002C141.696 152.299 147.223 150.947 152.829 150.947C162.591 150.947 170.39 153.931 176.217 159.888C182.054 165.845 184.967 173.824 184.967 183.836H141.496C141.796 192.746 144.7 200.155 150.206 206.062C155.713 211.969 162.34 214.922 170.099 214.922C173.053 214.922 175.726 214.381 178.129 213.31C180.532 212.229 182.704 210.617 184.657 208.465V215.523H184.647ZM141.326 178.499H148.234C155.042 178.499 159.227 177.909 160.769 176.737C162.32 175.556 163.101 173.323 163.101 170.019C163.101 165.564 162.3 162.22 160.698 159.998C159.097 157.765 156.664 156.654 153.41 156.654C149.255 156.654 146.201 158.396 144.249 161.87C142.297 165.354 141.326 170.89 141.326 178.499Z" fill="white"/>
<path d="M198.693 184.436C198.693 182.034 198.383 180.251 197.752 179.1C197.131 177.949 195.99 176.827 194.338 175.716L184.807 169.108C191.164 166.806 197.682 164.102 204.37 160.999C211.058 157.895 217.926 154.341 224.984 150.336V163.101C227.837 159.047 231.051 156.033 234.635 154.051C238.219 152.078 242.234 151.087 246.689 151.087C256.551 151.087 264.57 154.812 270.758 162.28C276.945 169.739 280.028 179.45 280.028 191.415C280.028 203.379 276.404 213.651 269.146 220.739C261.887 227.827 251.875 231.361 239.11 231.361C237.609 231.361 235.897 231.281 233.964 231.131C232.032 230.981 229.87 230.751 227.467 230.46V245.178C227.467 249.132 228.208 251.945 229.679 253.627C231.151 255.309 233.644 256.14 237.148 256.14H239.401V260.415H186.539V256.14H188.872C192.376 256.14 194.889 255.299 196.42 253.627C197.942 251.956 198.713 249.132 198.713 245.178V184.436H198.693ZM237.889 225.955C241.844 225.955 244.577 223.983 246.079 220.018C247.58 216.063 248.331 207.383 248.331 193.968C248.331 180.552 247.58 171.932 246.079 167.947C244.577 163.972 241.844 161.98 237.889 161.98C233.934 161.98 231.121 163.972 229.589 167.947C228.067 171.922 227.297 180.602 227.297 193.968C227.297 207.333 228.057 216.073 229.589 220.018C231.111 223.973 233.884 225.955 237.889 225.955Z" fill="white"/>
<path d="M289.179 160.028H278.747L317.492 122.634V154.321H321.547C324.851 154.321 327.674 154.151 330.027 153.8C332.38 153.45 334.402 152.899 336.114 152.148L333.781 160.038H317.492V199.684C317.492 206.242 318.343 211.088 320.045 214.211C321.747 217.335 324.4 218.907 328.005 218.907C328.756 218.907 329.607 218.787 330.558 218.526C331.509 218.266 332.59 217.906 333.781 217.405V221.99C330.428 224.994 326.733 227.287 322.708 228.858C318.684 230.44 314.489 231.221 310.134 231.221C303.075 231.221 297.699 229.179 293.995 225.104C290.29 221.029 288.438 215.082 288.438 207.273V206.302L289.189 160.048L289.179 160.028Z" fill="white"/>
<path d="M340.019 217.245C340.019 213.34 341.38 209.996 344.114 207.223C346.847 204.44 350.161 203.058 354.065 203.058C357.97 203.058 361.304 204.44 364.057 207.183C366.81 209.926 368.182 213.29 368.182 217.245C368.182 221.199 366.81 224.453 364.057 227.156C361.304 229.86 357.97 231.211 354.065 231.211C350.161 231.211 346.787 229.86 344.084 227.156C341.38 224.453 340.029 221.149 340.029 217.245H340.019Z" fill="white"/>
</g>
<defs>
<clipPath id="clip0_1_8">
<rect width="485.43" height="260.12" fill="white" transform="scale(1.00117)"/>
</clipPath>
</defs>
</svg>
